<?xml version="1.0" encoding="utf-8"?>
<!-- Generator: Adobe Illustrator 26.0.3, SVG Export Plug-In . SVG Version: 6.00 Build 0)  -->
<svg version="1.1" id="Layer_1" xmlns="http://www.w3.org/2000/svg" xmlns:xlink="http://www.w3.org/1999/xlink" x="0px" y="0px"
	 viewBox="0 0 1348.36 125.89" style="enable-background:new 0 0 1348.36 125.89; fill:#F7F6F2;" xml:space="preserve">
<g>
	<g>
		<path d="M694.02,34.6c6.58,0,12.36,0,18.63,0c0,29.84,0,59.39,0,89.49c-5.17,0-10.39,0.56-15.37-0.3
			c-1.76-0.31-2.92-4.08-4.42-6.39c-3.55,4.36-8.41,7.73-14.99,8.27c-11.71,0.95-20.12-3.24-25.46-13.68
			c-5.95-11.64-6.11-23.65-1.1-35.72c6.38-15.37,28.05-23.56,42.71-8.18c0-6.29,0-11.83,0-17.37
			C694.02,45.3,694.02,39.87,694.02,34.6z M666.65,92.45c0.12,0.03,0.24,0.06,0.36,0.09c0.14,2.15,0.17,4.32,0.44,6.46
			c0.22,1.81,0.57,3.62,1.1,5.36c1.65,5.48,5.41,8.55,10.66,9.03c5.53,0.51,9.43-2.1,11.67-6.79c4.41-9.22,4.41-18.64-0.2-27.83
			c-2.39-4.76-6.39-6.96-11.85-6.38c-5.27,0.56-8.6,3.51-9.97,8.4C667.8,84.58,667.37,88.55,666.65,92.45z"/>
		<path d="M739.42,61.54c6.25,0,12.06,0,18.6,0c0,2.2,0,4.28,0,6.37c0,10.49-0.04,20.98,0.04,31.46c0.02,2.13,0.3,4.31,0.82,6.37
			c1.13,4.49,4.04,7.13,8.75,7.62c4.98,0.51,8.5-1.93,10.4-6.14c1.26-2.78,1.85-6.06,1.9-9.13c0.21-11.97,0.09-23.95,0.09-36.29
			c6.26,0,12.31,0,18.81,0c0,20.56,0,41.11,0,62c-5.68,0-11.43,0-17.5,0c-0.42-1.86-0.85-3.76-1.43-6.32
			c-4.88,5.22-10.45,8.16-17.42,8.4c-12.06,0.43-22.09-6.74-22.83-18.65C738.71,92.18,739.42,77.04,739.42,61.54z"/>
	</g>
	<g>
		<path d="M1348.36,123.74c-8.27,0-16.1,0.22-23.91-0.17c-1.7-0.09-4-2.01-4.81-3.68c-10.37-21.39-20.52-42.89-30.74-64.36
			c-0.76-1.6-1.59-3.17-3.05-6.08c0,25.48,0,49.5,0,73.91c-6.11,0-11.82,0-17.9,0c0-29.69,0-59.39,0-89.71
			c8.84,0,17.61-0.14,26.37,0.15c1.23,0.04,2.82,1.95,3.51,3.36c10.26,20.9,20.39,41.85,30.56,62.79c0.43,0.9,0.94,1.76,2.07,3.87
			c0-24,0-46.77,0-69.85c6.32,0,12.04,0,17.9,0C1348.36,63.92,1348.36,93.74,1348.36,123.74z"/>
		<path d="M1150.4,78.71c0.15-13.16,2.55-25.68,12.4-35.26c13.27-12.89,29.48-13.73,46.12-9.19c15.84,4.33,24.21,16.23,26.51,31.78
			c1.29,8.73,1.33,18.05-0.23,26.72c-4.16,23.13-23.49,35.86-47.72,32.62C1163.23,122.14,1150.34,105.93,1150.4,78.71z
			 M1170.13,79.13c1.31,6.47,2.02,13.14,4.09,19.37c2.98,8.96,9.99,13.17,19.65,13.12c9.36-0.05,16.5-4.68,19.45-13.56
			c4.15-12.5,4.24-25.26,0.22-37.8c-3.07-9.56-10.22-14.36-19.94-14.32c-9.88,0.04-16.79,4.64-19.83,14.38
			C1171.91,66.27,1171.34,72.63,1170.13,79.13z"/>
		<path d="M963.42,123.56c-6.21,0-11.85,0-17.89,0c0.27-1.34,0.36-2.46,0.73-3.48c9.9-27.54,19.85-55.06,29.7-82.61
			c0.96-2.68,2.1-4.1,5.28-3.91c5.15,0.31,10.33,0.22,15.49,0.02c2.52-0.09,3.87,0.61,4.73,3.11c9.69,28.13,19.47,56.22,29.22,84.33
			c0.21,0.61,0.22,1.29,0.44,2.7c-5.94,0-11.68,0.14-17.39-0.14c-0.95-0.04-2.18-1.73-2.64-2.9c-1.62-4.18-3.14-8.42-4.35-12.74
			c-0.73-2.6-2.07-3.29-4.62-3.25c-9.33,0.13-18.66,0.16-27.99-0.02c-2.95-0.06-4.5,0.82-5.39,3.71
			C967.17,113.46,965.24,118.42,963.42,123.56z M988.36,51.22c-4.66,13.61-8.82,25.76-13.06,38.14c8.83,0,16.89,0,25.31,0
			C996.61,76.88,992.72,64.77,988.36,51.22z"/>
		<path d="M1078.98,88.72c0,12.19,0,23.29,0,34.71c-6.5,0-12.57,0-18.97,0c0-29.81,0-59.51,0-90.35
			c14.08,0.64,28.11,0.31,41.84,2.17c15.77,2.14,23.39,12.48,22.46,27.26c-0.95,15.05-10.31,24.8-25.7,26.12
			C1092.38,89.16,1086.05,88.72,1078.98,88.72z M1079.34,74.58c5.57-0.34,10.7-0.31,15.72-1.05c5.61-0.83,8.38-4.8,8.6-11.1
			c0.25-7.16-2.11-11.66-7.75-12.71c-5.29-0.98-10.78-0.88-16.57-1.28C1079.34,57.32,1079.34,65.38,1079.34,74.58z"/>
		<path d="M916.74,33.94c0,21.84,0.45,43.16-0.14,64.46c-0.51,18.46-16.13,29.84-35.59,26.98c-15.89-2.34-23.53-11.74-24.05-30
			c6.05,0,12.1,0,18.72,0c0.36,2.21,0.64,4.65,1.17,7.02c1.35,6,5.03,9.28,10.14,9.22c5.1-0.06,8.57-3.38,9.62-9.64
			c0.57-3.43,0.92-6.94,0.94-10.42c0.09-17.32,0.04-34.64,0.04-51.96c0-1.8,0-3.59,0-5.67C904.12,33.94,910.18,33.94,916.74,33.94z"
			/>
	</g>
	<g>
		<path d="M216.38,33.84c8.89,0,17.69-0.19,26.46,0.19c1.46,0.06,3.3,2.39,4.12,4.08c10.04,20.45,19.92,40.98,29.85,61.49
			c0.47,0.98,0.98,1.94,2.5,2.73c0-22.66,0-45.32,0-68.22c6.25,0,11.82,0,17.69,0c0,29.83,0,59.39,0,89.47
			c-8.66,0-17.12,0.15-25.55-0.17c-1.17-0.04-2.62-2.19-3.32-3.66c-10.36-21.6-20.61-43.25-30.9-64.88
			c-0.61-1.29-1.33-2.53-2.77-3.64c0,23.86,0,47.71,0,71.97c-6.19,0-11.94,0-18.08,0C216.38,93.73,216.38,64.05,216.38,33.84z"/>
		<path d="M157.79,33.84c10.34,29.75,20.63,59.36,31.19,89.75c-6.33,0-11.93,0.17-17.5-0.14c-1.1-0.06-2.54-1.81-3.05-3.09
			c-1.67-4.16-2.77-8.56-4.57-12.65c-0.6-1.36-2.64-2.92-4.06-2.96c-9.65-0.26-19.31-0.26-28.96,0c-1.47,0.04-3.06,1.69-4.27,2.92
			c-0.74,0.75-0.88,2.11-1.28,3.21c-5.18,14.16-6.38,14.82-22.72,12.12c3.07-8.48,6.12-16.86,9.15-25.25
			c7.15-19.85,14.37-39.68,21.36-59.58c1.2-3.43,2.91-4.59,6.49-4.4C145.53,34.07,151.52,33.84,157.79,33.84z M146.27,52.77
			c-0.34,0.01-0.68,0.02-1.02,0.03c-4.15,12.08-8.29,24.15-12.52,36.47c8.74,0,16.8,0,25.3,0
			C154.03,76.87,150.15,64.82,146.27,52.77z"/>
		<path d="M532.51,108.43c13.88,0,27.65,0,41.79,0c0,5.14,0,9.86,0,14.89c-20.4,0-40.62,0-61.13,0c0-29.75,0-59.32,0-89.18
			c19.94,0,39.67,0,59.67,0c0,4.81,0,9.38,0,14.42c-13.52,0-26.77,0-40.39,0c0,7.18,0,13.89,0,21.29c9.62,0,19.06,0,28.5,0
			c9.78,0,9.79,0,9.7,9.71c-0.01,1.47-0.15,2.94-0.25,4.88c-12.65,0-25.07,0-37.9,0C532.51,92.49,532.51,100.06,532.51,108.43z"/>
		<path d="M333.19,34.09c20.14,0,39.74,0,59.63,0c0,4.82,0,9.39,0,14.45c-13.46,0-26.72,0-40.35,0c0,7.19,0,13.9,0,21.16
			c12.43,0,24.68,0,37.38,0c0,5.08,0,9.63,0,14.78c-12.27,0-24.67,0-37.41,0c0,8.16,0,15.73,0,23.88c13.7,0,27.43,0,41.51,0
			c0,5.27,0,9.98,0,14.97c-20.29,0-40.36,0-60.74,0C333.19,93.61,333.19,64.04,333.19,34.09z"/>
		<path d="M75.07,62.59c-6.79,0-13.21,0-19.86,0c-0.94-8.52-4.56-14.62-13.52-16.31c-6.23-1.18-11.06,0.59-14.65,5.95
			c-4.93,7.34-6.58,15.84-6.13,24.29c0.45,8.5,1.8,17.19,4.41,25.27c2.62,8.13,8.26,10.62,15.96,9.57
			c7.35-1.01,12.23-6.02,13.55-13.91c0.14-0.81,0.2-1.63,0.33-2.68c6.67,0,13.26,0,20.12,0c-0.08,10.95-4,19.58-13.4,25.26
			c-16.37,9.88-40.45,6.94-51.39-6.29c-6.5-7.87-8.99-17.27-10.02-27.2C-0.78,74.56,0.33,62.91,5.42,51.9
			c6.27-13.56,18.97-21.2,33.86-19.93c6.38,0.54,12.95,1.62,18.92,3.83C69.39,39.95,75.31,49.91,75.07,62.59z"/>
		<path d="M427.97,123.26c0-29.79,0-59.32,0-89.14c6.37,0,12.44,0,19,0c0,24.76,0,49.31,0,74.23c13.07,0,25.66,0,38.63,0
			c0,5.09,0,9.81,0,14.91C466.64,123.26,447.6,123.26,427.97,123.26z"/>
		<path d="M539.9,19.56c4.91-5.8,9.73-11.68,14.77-17.36c2.48-2.79,5.72-2.95,8.32-0.34c2.46,2.47,2.46,5.98-0.52,7.75
			c-7.03,4.16-14.44,7.68-21.7,11.46C540.48,20.56,540.19,20.06,539.9,19.56z"/>
	</g>
</g>
</svg>
