<?xml version="1.0" encoding="utf-8"?>
<!-- Generator: Adobe Illustrator 26.0.3, SVG Export Plug-In . SVG Version: 6.00 Build 0)  -->
<svg version="1.1" id="Layer_1" xmlns="http://www.w3.org/2000/svg" xmlns:xlink="http://www.w3.org/1999/xlink" x="0px" y="0px"
	 viewBox="0 0 660.76 793.96" style="enable-background:new 0 0 660.76 793.96; fill:#F7F6F2 " xml:space="preserve">
<g>
	<path   d="M492.81,791.81c-8.27,0-16.1,0.22-23.91-0.17c-1.7-0.09-4-2.01-4.81-3.68c-10.37-21.39-20.52-42.89-30.74-64.36
		c-0.76-1.6-1.59-3.17-3.05-6.08c0,25.48,0,49.5,0,73.91c-6.11,0-11.82,0-17.9,0c0-29.69,0-59.39,0-89.71
		c8.84,0,17.61-0.14,26.37,0.15c1.23,0.04,2.82,1.95,3.51,3.36c10.26,20.9,20.39,41.85,30.56,62.79c0.43,0.9,0.94,1.76,2.07,3.87
		c0-24,0-46.77,0-69.85c6.32,0,12.04,0,17.9,0C492.81,732,492.81,761.82,492.81,791.81z"/>
	<path d="M220.53,305.05c8.89,0,17.69-0.19,26.46,0.19c1.46,0.06,3.3,2.39,4.12,4.08c10.04,20.45,19.92,40.98,29.85,61.49
		c0.47,0.98,0.98,1.94,2.5,2.73c0-22.66,0-45.32,0-68.22c6.25,0,11.82,0,17.69,0c0,29.83,0,59.39,0,89.47
		c-8.66,0-17.12,0.15-25.55-0.17c-1.17-0.04-2.62-2.19-3.32-3.66c-10.36-21.6-20.61-43.25-30.9-64.88
		c-0.61-1.29-1.33-2.53-2.77-3.64c0,23.86,0,47.71,0,71.97c-6.19,0-11.94,0-18.08,0C220.53,364.94,220.53,335.25,220.53,305.05z"/>
	<path d="M86.77,41.96c-10.51,0-19.77,0-28.88,0c-1.95,7.21-3.48,14.34-5.81,21.21c-6.8,20.09-19.86,35.14-38.12,45.72
		c-1.05,0.61-3.48,0.28-4.38-0.56C6.34,105.3,3.47,101.86,0,98.07c22.8-11.58,37.38-29.48,40.52-56.24c-10.44,0-20.79,0-31.41,0
		c0-5.35,0-10.07,0-15.37c11,0,21.73,0,32.7,0c0-7.66,0-14.75,0-22.42c4.85,0.33,9.95,0.46,14.96,1.19
		c0.96,0.14,2.19,2.56,2.26,3.97c0.26,5.46,0.11,10.93,0.11,16.96c14.47,0,28.86,0,43.69,0c0,4.65,0.29,8.77-0.05,12.83
		c-1.35,15.88-2.06,31.88-4.62,47.57c-2.58,15.86-12.89,24.82-35.45,22.63c-1.37-5.29-2.73-10.56-4.2-16.26
		c2.7,0.23,5.39,0.59,8.09,0.65c10.51,0.24,14.74-2.58,16.23-12.78C84.68,68.17,85.46,55.37,86.77,41.96z"/>
	<path d="M575.78,37.7c21,0,41.43,0,62.11,0c0,11.01,0,21.76,0,32.88c-7.79,0-15.4,0-23.38,0c0,2.41,0,4.46,0,7.06
		c11.63,0,23.37,0,35.41,0c0,4.25,0,7.97,0,12.09c-11.82,0-23.42,0-35.4,0c0,2.75,0,5.11,0,7.88c15.3,0,30.57,0,46.23,0
		c0,4.11,0,7.84,0,12.02c-35.92,0-71.95,0-108.3,0c0-3.75,0-7.49,0-11.7c15.27,0,30.52,0,46.19,0c0-2.8,0-5.15,0-7.97
		c-11.75,0-23.35,0-35.37,0c0-4.15,0-7.86,0-12.14c11.68,0,23.42,0,35.46,0c0-2.47,0-4.4,0-6.9c-7.47,0-15.04,0-22.95,0
		C575.78,59.6,575.78,48.86,575.78,37.7z M590.26,58.46c11.24,0,21.99,0,32.74,0c0-3.3,0-6.33,0-9.25c-11.19,0-21.91,0-32.74,0
		C590.26,52.4,590.26,55.21,590.26,58.46z"/>
	<path d="M263.61,26.39c-10.64,0-21.29,0-31.93,0c-10.47,0-20.94,0-31.82,0c0-4.98,0-9.52,0-14.48c1.52-0.1,2.95-0.27,4.39-0.27
		c22.33-0.02,44.66,0.3,66.98-0.21c7.03-0.16,11.73,2.16,15.93,8.58c-8.71,15.28-17.66,30.99-25.83,45.33
		c8.68,9.31,17.48,18.75,25.6,27.45c-4.2,4.85-7.88,9.11-11.42,13.21c-9.03-9.76-17.58-19-26.35-28.48
		c-1.55,1.32-2.56,2.09-3.46,2.96c-12.52,12.13-27.36,20.55-43.42,26.94c-1.13,0.45-3.36,0.08-4.11-0.76
		c-3.07-3.45-5.76-7.24-9-11.44c17.47-5.3,33.61-12.7,46.86-27.42c-9.34-5.28-18.33-10.35-27.76-15.68
		c2.67-3.34,5.28-6.93,8.29-10.13c0.71-0.76,3.09-0.8,4.19-0.21c7.2,3.82,14.26,7.9,21.37,11.89c1.43,0.81,2.85,1.63,5.09,2.91
		c5.99-9.74,11.85-19.27,17.71-28.8C264.47,27.32,264.04,26.86,263.61,26.39z"/>
	<path d="M294.85,746.79c0.15-13.16,2.55-25.68,12.4-35.26c13.27-12.89,29.48-13.73,46.12-9.19c15.84,4.33,24.21,16.23,26.51,31.78
		c1.29,8.73,1.33,18.05-0.23,26.72c-4.16,23.13-23.49,35.86-47.72,32.62C307.68,790.22,294.79,774.01,294.85,746.79z M314.58,747.21
		c1.31,6.47,2.02,13.14,4.09,19.37c2.98,8.96,9.99,13.17,19.65,13.12c9.36-0.05,16.5-4.68,19.45-13.56
		c4.15-12.5,4.24-25.26,0.22-37.8c-3.07-9.56-10.22-14.36-19.94-14.32c-9.88,0.04-16.79,4.64-19.83,14.38
		C316.36,734.35,315.79,740.7,314.58,747.21z"/>
	<path d="M107.87,791.64c-6.21,0-11.85,0-17.89,0c0.27-1.34,0.36-2.46,0.73-3.48c9.9-27.54,19.85-55.06,29.7-82.61
		c0.96-2.68,2.1-4.1,5.28-3.91c5.15,0.31,10.33,0.22,15.49,0.02c2.52-0.09,3.87,0.61,4.73,3.11c9.69,28.13,19.47,56.22,29.22,84.33
		c0.21,0.61,0.22,1.29,0.44,2.7c-5.94,0-11.68,0.14-17.39-0.14c-0.95-0.04-2.18-1.73-2.64-2.9c-1.62-4.18-3.14-8.42-4.35-12.74
		c-0.73-2.6-2.07-3.29-4.62-3.25c-9.33,0.13-18.66,0.16-27.99-0.02c-2.95-0.06-4.5,0.82-5.39,3.71
		C111.62,781.54,109.69,786.5,107.87,791.64z M132.81,719.3c-4.66,13.61-8.82,25.76-13.06,38.14c8.83,0,16.89,0,25.31,0
		C141.06,744.96,137.17,732.85,132.81,719.3z"/>
	<path d="M161.94,305.05c10.34,29.75,20.63,59.36,31.19,89.75c-6.33,0-11.93,0.17-17.5-0.14c-1.1-0.06-2.54-1.81-3.05-3.09
		c-1.67-4.16-2.77-8.56-4.57-12.65c-0.6-1.36-2.64-2.92-4.06-2.96c-9.65-0.26-19.31-0.26-28.96,0c-1.47,0.04-3.06,1.69-4.27,2.92
		c-0.74,0.75-0.88,2.11-1.28,3.21c-5.18,14.16-6.38,14.82-22.72,12.12c3.07-8.48,6.12-16.86,9.15-25.25
		c7.15-19.85,14.37-39.68,21.36-59.58c1.2-3.43,2.91-4.59,6.49-4.4C149.68,305.27,155.67,305.05,161.94,305.05z M150.42,323.97
		c-0.34,0.01-0.68,0.02-1.02,0.03c-4.15,12.08-8.29,24.15-12.52,36.47c8.74,0,16.8,0,25.3,0
		C158.18,348.07,154.3,336.02,150.42,323.97z"/>
	<path d="M536.66,379.64c13.88,0,27.65,0,41.79,0c0,5.14,0,9.86,0,14.89c-20.4,0-40.62,0-61.13,0c0-29.75,0-59.32,0-89.18
		c19.94,0,39.67,0,59.67,0c0,4.81,0,9.38,0,14.42c-13.52,0-26.77,0-40.39,0c0,7.18,0,13.89,0,21.29c9.62,0,19.06,0,28.5,0
		c9.78,0,9.79,0,9.7,9.71c-0.01,1.47-0.15,2.94-0.25,4.88c-12.65,0-25.07,0-37.9,0C536.66,363.7,536.66,371.27,536.66,379.64z"/>
	<path d="M337.34,305.3c20.14,0,39.74,0,59.63,0c0,4.82,0,9.39,0,14.45c-13.46,0-26.72,0-40.35,0c0,7.19,0,13.9,0,21.16
		c12.43,0,24.68,0,37.38,0c0,5.08,0,9.63,0,14.78c-12.27,0-24.67,0-37.41,0c0,8.16,0,15.73,0,23.88c13.7,0,27.43,0,41.51,0
		c0,5.27,0,9.98,0,14.97c-20.29,0-40.36,0-60.74,0C337.34,364.81,337.34,335.24,337.34,305.3z"/>
	<path d="M79.22,333.8c-6.79,0-13.21,0-19.86,0c-0.94-8.52-4.56-14.62-13.52-16.31c-6.23-1.18-11.06,0.59-14.65,5.95
		c-4.93,7.34-6.58,15.84-6.13,24.29c0.45,8.5,1.8,17.19,4.41,25.27c2.62,8.13,8.26,10.62,15.96,9.57
		c7.35-1.01,12.23-6.02,13.55-13.91c0.14-0.81,0.2-1.63,0.33-2.68c6.67,0,13.26,0,20.12,0c-0.08,10.95-4,19.58-13.4,25.26
		c-16.37,9.88-40.45,6.94-51.39-6.29c-6.5-7.87-8.99-17.27-10.02-27.2c-1.24-11.97-0.14-23.63,4.95-34.64
		c6.27-13.56,18.97-21.2,33.86-19.93c6.38,0.54,12.95,1.62,18.92,3.83C73.54,311.16,79.46,321.12,79.22,333.8z"/>
	<path d="M51.14,503.9c6.58,0,12.36,0,18.63,0c0,29.84,0,59.39,0,89.49c-5.17,0-10.39,0.56-15.37-0.3
		c-1.76-0.31-2.92-4.08-4.42-6.39c-3.55,4.36-8.41,7.73-14.99,8.27c-11.71,0.95-20.12-3.24-25.46-13.68
		c-5.95-11.64-6.11-23.65-1.1-35.72c6.38-15.37,28.05-23.56,42.71-8.18c0-6.29,0-11.83,0-17.37
		C51.14,514.6,51.14,509.18,51.14,503.9z M23.78,561.75c0.12,0.03,0.24,0.06,0.36,0.09c0.14,2.15,0.17,4.32,0.44,6.46
		c0.22,1.81,0.57,3.62,1.1,5.36c1.65,5.48,5.41,8.55,10.66,9.03c5.53,0.51,9.43-2.1,11.67-6.79c4.41-9.22,4.41-18.64-0.2-27.83
		c-2.39-4.76-6.39-6.96-11.85-6.38c-5.27,0.56-8.6,3.51-9.97,8.4C24.92,553.88,24.49,557.86,23.78,561.75z"/>
	<path d="M223.43,756.8c0,12.19,0,23.29,0,34.71c-6.5,0-12.57,0-18.97,0c0-29.81,0-59.51,0-90.35c14.08,0.64,28.11,0.31,41.84,2.17
		c15.77,2.14,23.39,12.48,22.46,27.26c-0.95,15.05-10.31,24.8-25.7,26.12C236.83,757.24,230.5,756.8,223.43,756.8z M223.79,742.66
		c5.57-0.34,10.7-0.31,15.72-1.05c5.61-0.83,8.38-4.8,8.6-11.1c0.25-7.16-2.11-11.66-7.75-12.71c-5.29-0.98-10.78-0.88-16.57-1.28
		C223.79,725.4,223.79,733.46,223.79,742.66z"/>
	<path d="M464.35,41.12c2.35,4.74,4.87,9.03,6.52,13.62c0.53,1.49-0.73,4.29-2.04,5.67c-15.13,16.1-33.07,28.26-53.13,37.4
		c-6.66,3.04-13.21,6.32-19.98,9.08c-1.49,0.61-3.69-0.52-5.55-0.87c-0.13-0.02-0.2-0.26-0.34-0.36c-6.7-4.59-8.04-10.92-7.88-18.85
		c0.52-25.79,0.19-51.59,0.19-77.75c5.64,0,11.03,0,16.9,0c0,25.37,0,50.77,0,77.23C425.4,76.9,446.86,62.01,464.35,41.12z"/>
	<path d="M96.54,530.84c6.25,0,12.06,0,18.6,0c0,2.2,0,4.28,0,6.37c0,10.49-0.04,20.98,0.04,31.46c0.02,2.13,0.3,4.31,0.82,6.37
		c1.13,4.49,4.04,7.13,8.75,7.62c4.98,0.51,8.5-1.93,10.4-6.14c1.26-2.78,1.85-6.06,1.9-9.13c0.21-11.97,0.09-23.95,0.09-36.29
		c6.26,0,12.31,0,18.81,0c0,20.56,0,41.11,0,62c-5.68,0-11.43,0-17.5,0c-0.42-1.86-0.85-3.76-1.43-6.32
		c-4.88,5.22-10.45,8.16-17.42,8.4c-12.06,0.43-22.09-6.74-22.83-18.65C95.83,561.49,96.54,546.35,96.54,530.84z"/>
	<path d="M637.53,19.24c7.16,0,13.57,0,20.34,0c0,9.25,0,18,0,27.11c-4.47,0-9.05,0-14.2,0c0-4.63,0-9.38,0-14.54
		c-24.92,0-49.27,0-74.22,0c0,4.93,0,9.68,0,14.65c-5.01,0-9.43,0-14.24,0c0-8.84,0-17.56,0-26.83c6.75,0,13.49,0,21.72,0
		c-3.38-4.53-5.98-8.02-9.05-12.15c3.65-2.21,7.2-4.56,10.97-6.46c0.85-0.43,2.95,0.36,3.71,1.24c3.2,3.77,6.11,7.79,9.32,11.96
		c-2.15,1.7-3.75,2.96-6.11,4.84c4.82,0,8.68,0,13.16,0c0-6.36,0-12.58,0-19.07c5.21,0,9.81,0,14.96,0c0,6.12,0,12.36,0,19.01
		c4.53,0,8.54,0,13.53,0c-2.14-1.27-3.57-2.12-5.12-3.05c2.7-4.72,5.31-9.5,8.2-14.1c0.43-0.69,2.36-1.05,3.27-0.71
		c3.56,1.32,6.99,2.99,11.15,4.82C642.46,10.38,640.19,14.46,637.53,19.24z"/>
	<path d="M61.19,702.02c0,21.84,0.45,43.16-0.14,64.46c-0.51,18.46-16.13,29.84-35.59,26.98c-15.89-2.34-23.53-11.74-24.05-30
		c6.05,0,12.11,0,18.72,0c0.36,2.21,0.64,4.65,1.17,7.02c1.35,6,5.03,9.28,10.14,9.22c5.1-0.06,8.57-3.38,9.62-9.64
		c0.57-3.43,0.92-6.94,0.94-10.42c0.09-17.32,0.04-34.64,0.04-51.96c0-1.8,0-3.59,0-5.67C48.57,702.02,54.63,702.02,61.19,702.02z"
		/>
	<path d="M432.12,394.47c0-29.79,0-59.32,0-89.14c6.37,0,12.44,0,19,0c0,24.76,0,49.31,0,74.23c13.07,0,25.66,0,38.63,0
		c0,5.09,0,9.81,0,14.91C470.79,394.47,451.75,394.47,432.12,394.47z"/>
	<path d="M544.05,290.77c4.91-5.8,9.73-11.68,14.77-17.36c2.48-2.79,5.72-2.95,8.32-0.34c2.46,2.47,2.46,5.98-0.52,7.75
		c-7.03,4.16-14.44,7.68-21.7,11.46C544.63,291.77,544.34,291.27,544.05,290.77z"/>
</g>
</svg>
